# xmcd CD database file
#
# Track frame offsets:
#	200
#	20992
#	34237
#	46670
#	62435
#	78720
#	98097
#	121270
#	142425
#	165817
#	183177
#	200977
#
# Disc length: 2941 seconds
#
# Revision: 0
# Processed by: cddbd v1.5.1PL0 Copyright (c) Steve Scherf et al.
# Submitted via: CDex 1.50
#
DISCID=a50b7b0c
DTITLE=Jimmy Rowles - Weather in a Jazz Vane
DYEAR=1958
DGENRE=Jazz
TTITLE0=The Wind And Rain In Your Hair
TTITLE1=The Breeze And I
TTITLE2=When The Sun Comes Out
TTITLE3=Throwin' Stones At The Sun
TTITLE4=Heat Wave
TTITLE5=Let It Snow
TTITLE6=Winter Weather
TTITLE7=Some Other Spring
TTITLE8=Too Hot For Words
TTITLE9=Throwin' Stones At The Sun (Take 3)
TTITLE10=Throwin' Stones At The Sun (Take 4)
TTITLE11=Let It Snow (Take 3)
EXTD=YEAR: 1958
EXTT0=
EXTT1=
EXTT2=
EXTT3=
EXTT4=
EXTT5=
EXTT6=
EXTT7=
EXTT8=
EXTT9=
EXTT10=
EXTT11=
PLAYORDER=
